<svg width="598" height="191" viewBox="0 0 598 191" fill="none" xmlns="http://www.w3.org/2000/svg">
<rect x="0.364136" width="596.774" height="164.476" fill="#D9D9D9"/>
<path d="M69.36 82.6471C69.36 87.7351 68.512 92.4071 66.816 96.6631C65.12 100.919 62.736 104.583 59.664 107.655C56.592 110.727 52.896 113.111 48.576 114.807C44.256 116.503 39.456 117.351 34.176 117.351H7.728V47.9431H34.176C39.456 47.9431 44.256 48.8071 48.576 50.5351C52.896 52.2311 56.592 54.6151 59.664 57.6871C62.736 60.7271 65.12 64.3751 66.816 68.6311C68.512 72.8871 69.36 77.5591 69.36 82.6471ZM56.112 82.6471C56.112 78.8391 55.6 75.4311 54.576 72.4231C53.584 69.3831 52.128 66.8231 50.208 64.7431C48.32 62.6311 46.016 61.0151 43.296 59.8951C40.608 58.7751 37.568 58.2151 34.176 58.2151H20.688V107.079H34.176C37.568 107.079 40.608 106.519 43.296 105.399C46.016 104.279 48.32 102.679 50.208 100.599C52.128 98.4871 53.584 95.9271 54.576 92.9191C55.6 89.8791 56.112 86.4551 56.112 82.6471ZM93.7193 117.351H80.7593V47.9431H93.7193V117.351ZM145.931 91.1431L137.483 68.0551C137.067 67.0311 136.635 65.8151 136.187 64.4071C135.739 62.9991 135.291 61.4791 134.843 59.8471C134.427 61.4791 133.995 63.0151 133.547 64.4551C133.099 65.8631 132.667 67.0951 132.251 68.1511L123.851 91.1431H145.931ZM168.731 117.351H158.747C157.627 117.351 156.715 117.079 156.011 116.535C155.307 115.959 154.779 115.255 154.427 114.423L149.243 100.263H120.491L115.307 114.423C115.051 115.159 114.555 115.831 113.819 116.439C113.083 117.047 112.171 117.351 111.083 117.351H101.003L128.315 47.9431H141.467L168.731 117.351ZM196.892 80.9671C199.324 80.9671 201.436 80.6631 203.228 80.0551C205.052 79.4471 206.54 78.6151 207.692 77.5591C208.876 76.4711 209.756 75.1911 210.332 73.7191C210.908 72.2471 211.196 70.6311 211.196 68.8711C211.196 65.3511 210.028 62.6471 207.692 60.7591C205.388 58.8711 201.852 57.9271 197.084 57.9271H188.828V80.9671H196.892ZM230.108 117.351H218.444C216.236 117.351 214.636 116.487 213.644 114.759L199.052 92.5351C198.508 91.7031 197.9 91.1111 197.228 90.7591C196.588 90.4071 195.628 90.2311 194.348 90.2311H188.828V117.351H175.916V47.9431H197.084C201.788 47.9431 205.82 48.4391 209.18 49.4311C212.572 50.3911 215.34 51.7511 217.484 53.5111C219.66 55.2711 221.26 57.3831 222.284 59.8471C223.308 62.2791 223.82 64.9671 223.82 67.9111C223.82 70.2471 223.468 72.4551 222.764 74.5351C222.092 76.6151 221.1 78.5031 219.788 80.1991C218.508 81.8951 216.908 83.3831 214.988 84.6631C213.1 85.9431 210.94 86.9511 208.508 87.6871C209.34 88.1671 210.108 88.7431 210.812 89.4151C211.516 90.0551 212.156 90.8231 212.732 91.7191L230.108 117.351ZM264.224 90.4711V117.351H251.359V90.4711L226.063 47.9431H237.44C238.56 47.9431 239.44 48.2151 240.08 48.7591C240.752 49.3031 241.312 49.9911 241.76 50.8231L254.432 74.0071C255.168 75.3831 255.808 76.6791 256.352 77.8951C256.928 79.1111 257.44 80.3271 257.888 81.5431C258.304 80.3271 258.784 79.1111 259.328 77.8951C259.872 76.6791 260.496 75.3831 261.2 74.0071L273.824 50.8231C274.176 50.1191 274.704 49.4631 275.408 48.8551C276.112 48.2471 277.008 47.9431 278.096 47.9431H289.52L264.224 90.4711ZM373.288 82.5511V110.631C369.768 113.223 366.008 115.127 362.008 116.343C358.04 117.527 353.784 118.119 349.24 118.119C343.576 118.119 338.44 117.239 333.832 115.479C329.256 113.719 325.336 111.271 322.072 108.135C318.84 104.999 316.344 101.255 314.584 96.9031C312.824 92.5511 311.944 87.7991 311.944 82.6471C311.944 77.4311 312.792 72.6471 314.488 68.2951C316.184 63.9431 318.584 60.1991 321.688 57.0631C324.824 53.9271 328.616 51.4951 333.064 49.7671C337.512 48.0391 342.504 47.1751 348.04 47.1751C350.856 47.1751 353.48 47.3991 355.912 47.8471C358.376 48.2951 360.648 48.9191 362.728 49.7191C364.84 50.4871 366.76 51.4311 368.488 52.5511C370.216 53.6711 371.8 54.9031 373.24 56.2471L369.544 62.1031C368.968 63.0311 368.216 63.6071 367.288 63.8311C366.36 64.0231 365.352 63.7831 364.264 63.1111C363.208 62.5031 362.152 61.8951 361.096 61.2871C360.04 60.6791 358.856 60.1511 357.544 59.7031C356.264 59.2551 354.808 58.8871 353.176 58.5991C351.576 58.3111 349.72 58.1671 347.608 58.1671C344.184 58.1671 341.08 58.7431 338.296 59.8951C335.544 61.0471 333.192 62.6951 331.24 64.8391C329.288 66.9831 327.784 69.5591 326.728 72.5671C325.672 75.5751 325.144 78.9351 325.144 82.6471C325.144 86.6151 325.704 90.1671 326.824 93.3031C327.976 96.4071 329.576 99.0471 331.624 101.223C333.704 103.367 336.2 105.015 339.112 106.167C342.024 107.287 345.272 107.847 348.856 107.847C351.416 107.847 353.704 107.575 355.72 107.031C357.736 106.487 359.704 105.751 361.624 104.823V92.2471H352.888C352.056 92.2471 351.4 92.0231 350.92 91.5751C350.472 91.0951 350.248 90.5191 350.248 89.8471V82.5511H373.288ZM421.556 91.1431L413.108 68.0551C412.692 67.0311 412.26 65.8151 411.812 64.4071C411.364 62.9991 410.916 61.4791 410.468 59.8471C410.052 61.4791 409.62 63.0151 409.172 64.4551C408.724 65.8631 408.292 67.0951 407.876 68.1511L399.476 91.1431H421.556ZM444.356 117.351H434.372C433.252 117.351 432.34 117.079 431.636 116.535C430.932 115.959 430.404 115.255 430.052 114.423L424.868 100.263H396.116L390.932 114.423C390.676 115.159 390.18 115.831 389.444 116.439C388.708 117.047 387.796 117.351 386.708 117.351H376.628L403.94 47.9431H417.092L444.356 117.351ZM526.805 47.9431V117.351H515.429V72.5191C515.429 70.7271 515.525 68.7911 515.717 66.7111L494.741 106.119C493.749 108.007 492.229 108.951 490.181 108.951H488.357C486.309 108.951 484.789 108.007 483.797 106.119L462.581 66.5671C462.677 67.6231 462.757 68.6631 462.821 69.6871C462.885 70.7111 462.917 71.6551 462.917 72.5191V117.351H451.541V47.9431H461.285C461.861 47.9431 462.357 47.9591 462.773 47.9911C463.189 48.0231 463.557 48.1031 463.877 48.2311C464.229 48.3591 464.533 48.5671 464.789 48.8551C465.077 49.1431 465.349 49.5271 465.605 50.0071L486.389 88.5511C486.933 89.5751 487.429 90.6311 487.877 91.7191C488.357 92.8071 488.821 93.9271 489.269 95.0791C489.717 93.8951 490.181 92.7591 490.661 91.6711C491.141 90.5511 491.653 89.4791 492.197 88.4551L512.693 50.0071C512.949 49.5271 513.221 49.1431 513.509 48.8551C513.797 48.5671 514.101 48.3591 514.421 48.2311C514.773 48.1031 515.157 48.0231 515.573 47.9911C515.989 47.9591 516.485 47.9431 517.061 47.9431H526.805ZM555.251 58.2151V77.4631H579.539V87.3991H555.251V107.031H586.067V117.351H542.291V47.9431H586.067V58.2151H555.251Z" fill="black" fill-opacity="0.03"/>
</svg>
